<!DOCTYPE svg PUBLIC "-//W3C//DTD SVG 1.1//EN" "http://www.w3.org/Graphics/SVG/1.1/DTD/svg11.dtd">
<!-- Uploaded to: SVG Repo, www.svgrepo.com, Transformed by: SVG Repo Mixer Tools -->
<svg fill="#573111" height="800px" width="800px" version="1.1" id="Capa_1" xmlns="http://www.w3.org/2000/svg" xmlns:xlink="http://www.w3.org/1999/xlink" viewBox="0 0 350 350" xml:space="preserve" stroke="#573111">
<g id="SVGRepo_bgCarrier" stroke-width="0"/>
<g id="SVGRepo_tracerCarrier" stroke-linecap="round" stroke-linejoin="round"/>
<g id="SVGRepo_iconCarrier"> <g> <path d="M247.436,288.6C264.658,282.791,350,250.865,350,188.814c0-38.818-15.299-56.129-49.605-56.129H10c-5.523,0-10,4.478-10,10 v58.357c0,49.781,26.563,93.474,66.26,117.651H36.934c-5.523,0-10,4.478-10,10c0,5.523,4.478,10,10,10h100.719h3.646h100.728 c5.522,0,10-4.477,10-10c0-5.522-4.478-10-10-10h-29.335C225.889,310.654,237.635,300.459,247.436,288.6z M278.95,201.042v-48.357 h21.444c20.473,0,29.605,5.217,29.605,36.129c0,33.839-37.13,57.706-64.039,70.559C274.286,241.65,278.95,221.882,278.95,201.042z M141.299,318.693h-3.646C72.778,318.693,20,265.916,20,201.042v-48.357h238.95v48.357 C258.95,265.916,206.172,318.693,141.299,318.693z"/> <path d="M99.31,89.238c1.401,0.677,2.883,0.997,4.342,0.997c3.717,0,7.287-2.082,9.012-5.653l28.454-58.926 c2.401-4.974,0.316-10.952-4.656-13.353c-4.972-2.399-10.951-0.316-13.354,4.656L94.653,75.885 C92.252,80.858,94.337,86.837,99.31,89.238z"/> <path d="M162.497,89.238c1.401,0.677,2.883,0.997,4.342,0.997c3.717,0,7.287-2.082,9.012-5.653l28.455-58.926 c2.401-4.974,0.317-10.952-4.656-13.353c-4.971-2.399-10.952-0.316-13.354,4.656l-28.455,58.926 C155.439,80.858,157.523,86.837,162.497,89.238z"/> </g> </g>
</svg>