<?xml version="1.0" encoding="utf-8"?>
<!-- Generator: Adobe Illustrator 27.6.1, SVG Export Plug-In . SVG Version: 6.00 Build 0)  -->
<svg version="1.1" id="Layer_1" xmlns="http://www.w3.org/2000/svg" xmlns:xlink="http://www.w3.org/1999/xlink" x="0px" y="0px"
	 viewBox="0 0 458.46 289.51" style="enable-background:new 0 0 458.46 289.51;" xml:space="preserve">
<style type="text/css">
	.st0{fill:#212A4B;}
</style>
<g>
	<g>
		<g>
			<path class="st0" d="M46.96,170.28c-0.07,0.71,0.37,1.2,0.73,1.71c13.09,18.37,26.28,36.65,41.03,53.75
				c9.7,11.23,19.99,21.89,31.19,31.65c6.55,5.71,13.88,10.14,21.89,13.48c7.98,3.33,16.13,4.09,24.52,1.79
				c0.49-0.13,0.97-0.29,1.46-0.42c0.11-0.03,0.24,0.03,0.43,0.06c0.61,0.53,0.18,1.11-0.1,1.6c-5.55,9.83-13.94,15.09-25.25,15.6
				c-3.58,0.16-7.06-0.4-10.47-1.51c-15.03-4.9-27.77-13.21-38.26-25.1c-8.48-9.61-16.29-19.7-23.4-30.37
				c-9.34-14.02-18.92-27.87-28.42-41.78c-0.62-0.9-0.93-2.12-2.32-2.54c-0.25,0.56-0.57,1.09-0.73,1.66
				c-3.05,10.98-6.45,21.85-9.81,32.73c-2.67,8.63-4,17.51-4.55,26.52c-0.07,1.14-0.02,2.27,0.22,3.4c0.12,0.6,0.1,1.27-0.04,1.87
				c-0.16,0.67-0.72,1.09-1.42,0.94c-0.73-0.16-1.47-0.41-2.1-0.79c-2.91-1.77-4.97-4.26-6.18-7.46c-1.31-3.47-1.97-7.06-2.16-10.75
				c-0.47-9.18,0.6-18.19,2.61-27.14c2.74-12.23,5.28-24.5,7.9-36.75c0.11-0.49,0.17-1,0.25-1.5c0.2-1.41,0.12-1.58-1.18-1.83
				c-2.24-0.44-4.49-0.76-6.72-1.24c-1.97-0.43-3.97-0.86-5.86-1.57c-6.6-2.49-10.67-8.91-10.17-15.78c0.33-4.58,2.61-7.9,6.67-9.88
				c4.3-2.1,8.75-2.31,13.23-0.41c2.61,1.1,4.83,2.75,6.84,4.71c0.63,0.62,1.24,1.26,1.89,1.85c0.36,0.33,0.77,0.08,0.96-0.2
				c0.2-0.29,0.22-0.72,0.3-1.09c3.25-14.71,6.31-29.46,9.08-44.26c1.93-10.33,3.74-20.68,5.55-31.03c0.48-2.74,0.87-5.51,1.1-8.28
				c0.9-11.12,1.59-22.24,1.48-33.4c-0.03-3.16-0.23-6.34-0.59-9.48c-0.66-5.8-3.01-10.94-6.55-15.56c-0.61-0.8-1.28-1.56-1.87-2.38
				c-0.27-0.38-0.01-0.77,0.35-0.88c0.47-0.15,1-0.18,1.5-0.19c8.62-0.14,16.48,2.14,23.53,7.21c6.38,4.58,9.73,10.75,10.51,18.53
				c0.76,7.62,0.3,15.19-0.38,22.76c-1.65,18.21-5.66,36-9.82,53.75c-3.96,16.88-8.24,33.68-12.94,50.37
				c-0.2,0.72-0.48,1.42-0.33,2.13c0.77,0.73,1.53,0.26,2.17,0.07c26.17-7.61,47.32-22.08,61.86-45.48
				c9.97-16.04,17.11-33.28,21.44-51.68c1.8-7.67,2.89-15.44,3.07-23.31c0.14-6.11-0.73-12.13-2.35-18.02
				c-1.35-4.89-4.07-8.67-8.88-10.71c-0.33-0.14-0.57-0.47-1.05-0.89c1.37-1.05,2.9-1.46,4.39-1.88c3.82-1.08,7.71-1.44,11.66-0.97
				c6.67,0.79,11.65,4.11,14.59,10.16c2.29,4.7,3.63,9.72,4.02,14.95c0.51,6.73-0.08,13.42-1.11,20.07
				c-2.3,14.71-6.93,28.77-12.2,42.63c-2.62,6.88-6.09,13.35-10.03,19.58c-5.08,8.05-10.84,15.6-16.98,22.86
				c-4.2,4.96-9.09,9.18-14.4,12.91c-3.63,2.55-7.32,5-10.93,7.57c-6.56,4.67-13.77,7.98-21.35,10.59
				c-7.92,2.73-16.05,4.59-24.26,6.12C49.08,169.54,47.95,169.67,46.96,170.28z M16.81,155.53c0.33-0.17,1,0.19,1.14-0.48
				c0.06-0.3-0.16-0.72-0.37-1.01c-1.11-1.48-2.59-2.39-4.43-2.64c-0.33-0.04-0.77,0.09-1.03,0.3c-0.3,0.25-0.21,0.66-0.02,1.01
				C13.12,154.53,14.66,155.44,16.81,155.53z"/>
			<path class="st0" d="M445.82,131.08c-0.02,1.1,0.68,1.77,1.13,2.55c5.52,9.57,9.15,19.82,10.25,30.8
				c0.81,8.1,0.74,16.25-0.27,24.38c-1.91,15.47-6.95,29.93-14.47,43.46c-7.57,13.63-18.2,24.36-32.29,31.37
				c-5.84,2.91-12.05,4.36-18.61,4.41c-6.99,0.05-13.64-1.49-19.63-4.94c-3.33-1.92-6.61-2.31-10.16-1.93
				c-3.15,0.33-6.3,0.4-9.45,0.31c-2.22-0.06-4.47-0.24-6.65-0.65c-4.04-0.75-7.51-3.56-7.79-9.13c-0.21-4.25,1.84-6.97,6.55-8.05
				c1.86-0.43,3.94,0.15,5.58-1.26c-0.26-1.85-1.3-3.41-1.95-5.12c-4.26-11.15-6.51-22.65-6.61-34.62
				c-0.16-17.41,3.72-33.87,11.14-49.52c7.13-15.06,17.73-27.21,31.55-36.55c6.92-4.68,14.52-7.38,22.86-7.58
				c5.95-0.14,11.75,0.98,17.27,3.32c0.72,0.31,1.47,0.59,2.16,0.96c1.21,0.65,2.39,0.71,3.78,0.45c3.86-0.74,7.74-1.46,11.72-1.27
				c1.45,0.07,2.84,0.27,4.25,0.69c4.34,1.27,8.03,7.9,5.35,13.41c-0.59,1.22-1.44,2.2-2.61,2.87
				C447.88,130.03,446.82,130.55,445.82,131.08z M357.41,256.19c4.68-0.13,8.88-0.38,13.07-0.55c5.74-0.23,11.15-1.6,16.5-3.45
				c4.89-1.69,9.34-4.15,13.22-7.63c5.48-4.93,8.65-11.16,10.4-18.2c2.85-11.46,3.58-23.12,2.45-34.83
				c-0.86-8.88-2.34-17.69-3.44-26.55c-0.52-4.17-0.81-8.36-1.2-12.55c-0.31-3.29,0.69-6.23,2.41-8.96
				c1.33-2.12,2.89-4.06,4.82-5.69c3.86-3.25,8.15-5.76,12.95-7.33c3.24-1.06,6.53-1.97,9.8-2.94c2.14-0.63,4.32-1.15,6.42-1.89
				c2.1-0.74,2.79-2.27,2.16-4.39c-0.52-1.74-1.55-2.96-3.47-3.38c-1.31-0.28-2.59-0.39-3.91-0.26
				c-10.98,1.07-21.32,4.26-31.13,9.27c-3.81,1.95-7.08,4.53-9.75,7.84c-5.38,6.67-7.62,14.01-4.54,22.41
				c0.14,0.37,0.19,0.77,0.32,1.14c3.4,10.1,5.97,20.39,7.29,31c0.76,6.04,0.94,12.03-0.21,18.03c-2.55,13.3-9.31,23.88-20.51,31.49
				c-9.12,6.2-19.18,9.64-30.32,9.61c-1.7,0-3.42-0.09-5.09,0.4c-2.4,0.69-3.11,2.22-2.07,4.48c0.52,1.14,1.34,1.89,2.56,2.26
				c1.4,0.42,2.8,0.68,4.26,0.67C352.9,256.18,355.39,256.19,357.41,256.19z"/>
			<path class="st0" d="M458.46,90.21c-0.25,7.25-5.48,12.94-13.04,12.98c-7.74,0.04-12.95-6.04-13.06-12.94
				c-0.11-7.07,5.9-13.02,13-13.04C452.39,77.19,458.5,83.25,458.46,90.21z M435.06,90.35c-0.22,5.25,4.19,10.33,10.35,10.32
				c5.91-0.01,10.48-4.73,10.38-10.72c-0.1-5.77-4.67-9.95-10.59-10.06C439.74,79.78,434.6,84.84,435.06,90.35z"/>
			<path class="st0" d="M439.96,93.35c0.48-2.51,0.31-5.16,0.43-7.8c0.04-0.82,0.4-1.37,1.25-1.66c1.57-0.53,3.16-0.81,4.82-0.73
				c3.57,0.17,5.31,2.97,3.41,5.94c-0.83,1.31-0.74,2.18-0.2,3.37c0.36,0.79,0.58,1.66,0.74,2.52c0.24,1.26-0.14,1.84-1.11,1.94
				c-1.14,0.11-1.69-0.21-1.86-1.28c-0.14-0.88-0.25-1.75-0.73-2.51c-0.26-0.42-0.56-0.85-0.94-1.14c-0.92-0.71-2.46-0.13-2.67,1
				c-0.14,0.74-0.13,1.5-0.23,2.25c-0.1,0.75-0.64,1.01-1.33,1.04c-0.7,0.03-1.25-0.25-1.41-0.95
				C440,94.72,440.02,94.08,439.96,93.35z M443.48,87.43c-0.03,1.31,0.36,1.92,1.19,1.87c1.51-0.1,2.52-0.92,2.58-2.11
				c0.05-0.94-0.74-1.55-2.06-1.59C443.97,85.56,443.51,86.05,443.48,87.43z"/>
		</g>
	</g>
	<g>
		<path class="st0" d="M271.99,153.44c0.6-0.94,1.2-1.89,1.79-2.83c3.64-5.8,7.63-11.35,11.87-16.73c4.3-5.46,9.81-9.08,16.53-10.84
			c7.35-1.93,13.27,0.56,17.12,7.11c2.26,3.85,3.02,8.05,2.71,12.43c-0.85,12.17-2.99,24.11-6.79,35.73
			c-4.52,13.83-8.95,27.69-13.45,41.53c-1.14,3.52-1.53,7.17-2.13,10.79c-0.44,2.62-0.91,5.23-1.32,7.86
			c-0.16,0.99-0.34,2.02-0.28,3.01c0.22,3.53,3.16,5.42,6.44,4.12c2.37-0.95,4.37-2.5,6.25-4.24c8.84-8.21,16.47-17.51,24.21-26.72
			c0.77-0.91,1.56-1.81,2.46-2.86c-0.03,1.26-0.64,2.18-1.09,3.12c-3.43,7.24-7.6,14.02-12.48,20.37
			c-3.71,4.82-7.74,9.38-11.8,13.91c-3.52,3.94-7.76,6.86-12.55,9.03c-1.74,0.79-3.54,1.4-5.4,1.75c-4.7,0.89-8.26-0.94-10.22-5.27
			c-1.2-2.67-1.92-5.45-1.92-8.45c0-4.58,0.6-9.1,1.21-13.62c1.47-10.8,3.95-21.41,6.04-32.09c1.67-8.57,3.58-17.1,5.89-25.52
			c0.3-1.09,0.51-2.22,0.68-3.34c0.62-4.13,1.18-8.27,1.81-12.4c0.45-2.95-0.29-5.53-2.2-7.77c-1.34-1.57-3.07-2.23-5.11-1.7
			c-1.09,0.28-2.19,0.66-3.2,1.15c-3.57,1.72-6.7,4.07-9.42,6.96c-5.35,5.7-9.49,12.17-12.41,19.41c-2.8,6.93-5.08,14.05-7.24,21.19
			c-3.01,9.93-5.85,19.91-8.74,29.88c-3.29,11.32-4.4,22.85-3.42,34.59c0.03,0.37-0.03,0.74-0.04,1.07
			c-0.72,0.43-1.27,0.04-1.8-0.25c-4.16-2.25-7.19-5.53-9.03-9.91c-2.66-6.33-3.5-12.92-2.78-19.72c0.56-5.29,1.44-10.53,2.64-15.72
			c3.21-13.94,6.4-27.88,9.04-41.94c0.72-3.85,2.11-7.54,2.67-11.46c0.47-3.29,0.54-6.57,0.48-9.85c-0.08-3.91-3.34-6.46-7.24-5.74
			c-2.27,0.42-4.34,1.34-6.16,2.8c-2.28,1.82-4.39,3.83-6.37,5.97c-5.29,5.72-9.61,12.08-12.86,19.16
			c-5.39,11.75-9.76,23.89-13.7,36.2c-2.47,7.72-4.69,15.5-6.43,23.42c-1.37,6.21-2.21,12.47-1.91,18.84
			c0.04,0.87,0.26,1.77-0.25,2.76c-3.53-0.23-6.03-2.16-7.89-5.03c-2.05-3.15-3.05-6.68-3.21-10.41c-0.16-3.67-0.16-7.34-0.22-11.02
			c-0.02-1.13,0-2.26,0-3.42c-1.25,0.19-1.5,1.32-2.02,2.12c-4.07,6.15-8.72,11.82-14.05,16.93c-3.12,2.99-6.45,5.72-10.32,7.69
			c-3.19,1.62-6.53,2.74-10.19,2.57c-4.04-0.18-7.01-2.36-8.06-6.28c-0.92-3.42-1.46-6.87-1.24-10.5c0.6-9.89,1.78-19.67,4.42-29.24
			c1.48-5.37,2.99-10.73,4.61-16.06c2.53-8.36,5.13-16.69,7.77-25.01c2.61-8.23,4.48-16.63,5.41-25.21
			c0.8-7.36,0.46-14.68-1.62-21.85c-0.18-0.6-0.32-1.22-0.46-1.83c-0.03-0.12,0.02-0.25,0.03-0.39c0.52-0.77,1.33-0.51,2.03-0.47
			c3.82,0.2,7.56,0.87,11.08,2.41c7.05,3.07,10.84,8.43,11.24,16.18c0.51,9.74-0.8,19.19-4.04,28.4
			c-4.88,13.84-9.66,27.72-15.53,41.2c-3.03,6.96-5.72,14.07-7.36,21.53c-0.52,2.37-0.81,4.75-0.73,7.16
			c0.04,1.13,0.18,2.27,0.65,3.34c1.22,2.75,3.22,3.53,5.78,2c1.51-0.9,2.9-2.04,4.23-3.2c4.19-3.69,8.08-7.68,11.76-11.88
			c2.51-2.86,4.93-5.79,7.5-8.59c1.18-1.28,1.77-2.72,2.08-4.36c1.29-6.71,2.61-13.42,3.91-20.13c2.44-12.55,4.92-25.09,7.31-37.65
			c0.87-4.6,1.66-9.22,2.03-13.9c0.51-6.48,0.22-12.91-0.73-19.32c-0.11-0.75-0.17-1.51-0.21-2.27c-0.04-0.58,0.28-0.99,0.85-1
			c6.11-0.13,11.85,1.04,16.7,5.06c3.07,2.54,4.61,5.97,5.31,9.82c1,5.52,1.15,11.08,0.71,16.66c-0.06,0.79-0.47,1.64,0.11,2.47
			c1.03-0.41,1.26-1.32,1.69-2.03c3.37-5.52,7.04-10.83,10.89-16.02c1.51-2.03,3.1-4.01,4.81-5.88c4.83-5.26,10.93-8.14,17.96-8.95
			c5.78-0.66,10.43,1.47,13.67,6.38c2.23,3.37,3.28,7.12,3.17,11.16c-0.08,3.29-0.32,6.58-0.45,9.87c-0.05,1.24-0.01,2.49-0.01,3.74
			C271.63,153.39,271.81,153.41,271.99,153.44z"/>
		<path class="st0" d="M166.29,97.28c6.5,0.41,11.39,3.69,14.45,9.69c1.24,2.44,1.37,5.1,0.95,7.77c-0.67,4.22-3.44,6.34-7.77,5.87
			c-3.33-0.36-6.4-1.5-9.07-3.52c-1.71-1.29-3.27-2.77-4.82-4.26c-1.89-1.83-2.8-4.16-3.13-6.74c-0.59-4.6,1.9-7.93,6.47-8.59
			C164.24,97.38,165.13,97.37,166.29,97.28z"/>
	</g>
</g>
</svg>
